<?xml version="1.0" encoding="utf-8"?>
<!-- Generator: Adobe Illustrator 24.3.0, SVG Export Plug-In . SVG Version: 6.00 Build 0)  -->
<svg version="1.1" id="Layer_1" xmlns="http://www.w3.org/2000/svg" xmlns:xlink="http://www.w3.org/1999/xlink" x="0px" y="0px"
	 viewBox="0 0 226 71" style="enable-background:new 0 0 226 71;" xml:space="preserve">
<style type="text/css">
	.st0{fill-rule:evenodd;clip-rule:evenodd;fill:#FFFFFF;}
</style>
<path class="st0" d="M43.8,28.8c0-3.1-2.5-5.7-5.7-5.7c0,0,0,0,0,0H5.7c-3.1,0-5.7,2.5-5.7,5.7s2.5,5.7,5.7,5.7h32.5
	C41.3,34.5,43.8,31.9,43.8,28.8C43.8,28.8,43.8,28.8,43.8,28.8z M212.8,0c-7.3,0-13.2,5.9-13.2,13.2c0,7.3,5.9,13.2,13.2,13.2
	c7.3,0,13.2-5.9,13.2-13.2C226,5.9,220.1,0,212.8,0z M218.5,14l-2.9,1.7l-2.7,1.5l-2.9,1.7c-0.3,0.3-0.9,0.3-1.1-0.1
	c-0.2-0.2-0.2-0.4-0.2-0.7V8.3c-0.1-0.4,0.2-0.9,0.6-1c0.2,0,0.5,0,0.7,0.2l2.9,1.7l2.7,1.5l2.9,1.7c0.4,0.1,0.7,0.6,0.5,1
	C218.9,13.7,218.7,13.9,218.5,14L218.5,14z M147.4,39.4c-1.7,0-3.4-0.5-4.8-1.5c-0.6,0.9-0.9,1.9-0.9,3v23.9c0,3.1,2.5,5.7,5.7,5.7
	c3.1,0,5.7-2.5,5.7-5.7V40.9c0-1.1-0.3-2.1-0.9-3C150.8,38.9,149.1,39.4,147.4,39.4z M147.4,23.1c-4.3,0-7.7,3.5-7.7,7.7
	c0,4.3,3.5,7.7,7.7,7.7c4.3,0,7.7-3.5,7.7-7.7C155.1,26.5,151.7,23.1,147.4,23.1C147.4,23.1,147.4,23.1,147.4,23.1L147.4,23.1z
	 M88.9,39.4c-1.7,0-3.4-0.5-4.8-1.5c-0.6,0.9-0.9,1.9-0.9,3v23.9c0,3.1,2.5,5.7,5.7,5.7c3.1,0,5.7-2.5,5.7-5.7V40.9
	c0-1.1-0.3-2.1-0.9-3C92.3,38.9,90.6,39.4,88.9,39.4z M88.9,23.1c-4.3,0-7.7,3.5-7.7,7.7s3.5,7.7,7.7,7.7c4.3,0,7.7-3.5,7.7-7.7
	C96.6,26.5,93.2,23.1,88.9,23.1L88.9,23.1z M111.8,67.8L135,31.9c1.7-2.6,0.9-6.1-1.8-7.8c-2.6-1.6-6-0.9-7.7,1.7l-23.2,36
	c-1.7,2.6-0.9,6.1,1.7,7.8C106.6,71.2,110.1,70.4,111.8,67.8L111.8,67.8L111.8,67.8z M131.1,59.1h-12.6l-6,9.2
	c-0.6,0.9-1.3,1.6-2.2,2.1h20.8c3.1,0,5.7-2.5,5.7-5.7C136.7,61.6,134.2,59.1,131.1,59.1L131.1,59.1z M106.2,34.5h12.6l6-9.2
	c0.6-0.9,1.3-1.6,2.2-2.1h-20.7c-3.1-0.1-5.7,2.4-5.8,5.5c-0.1,3.1,2.4,5.7,5.5,5.8C106.1,34.5,106.2,34.5,106.2,34.5z M191.2,55.1
	c-4.6,4.6-12,4.6-16.6,0s-4.6-12,0-16.6c2.4-2.4,2.4-6.4,0-8.8c-2.4-2.4-6.4-2.4-8.8,0l0,0c-9.3,9.6-9.2,24.9,0.4,34.2
	c9.4,9.2,24.5,9.2,33.8,0c2.4-2.5,2.3-6.4-0.1-8.8C197.5,52.7,193.6,52.7,191.2,55.1L191.2,55.1z M168.8,27.1
	c3.8-0.8,7.6,1.7,8.4,5.5c0.3,1.4,0.2,2.8-0.4,4.1c5.5-3.4,12.7-1.7,16.1,3.7c2.4,3.8,2.4,8.6,0,12.4c3.6-1.5,7.8,0.3,9.3,3.9
	c0.5,1.3,0.7,2.7,0.4,4.1c7.8-10.8,5.4-26-5.4-33.8C188.7,21,177.3,21,168.8,27.1L168.8,27.1z M16.2,64.8c0,3.1,2.5,5.7,5.7,5.7
	c3.1,0,5.7-2.5,5.7-5.7V35.2H16.2V64.8z M74.1,23.6c-2.8-1.3-6.2-0.1-7.5,2.7l-11.2,24L60.8,62c0.3,0.7,0.5,1.4,0.6,2.2l15.4-33.1
	C78.1,28.3,76.9,24.9,74.1,23.6C74.1,23.6,74.1,23.6,74.1,23.6L74.1,23.6z M44.7,29.4c-0.3,3.3-3.1,5.9-6.5,5.9h-3.2l14.8,31.8
	c1.3,2.8,4.7,4.1,7.5,2.7c2.8-1.3,4.1-4.7,2.7-7.5l0,0L44.7,29.4z"/>
</svg>
